<?xml version="1.0" encoding="UTF-8"?>
<!DOCTYPE svg PUBLIC "-//W3C//DTD SVG 1.1//EN" "http://www.w3.org/Graphics/SVG/1.1/DTD/svg11.dtd">
<!-- Creator: CorelDRAW 2020 (64 Bit) -->
<svg xmlns="http://www.w3.org/2000/svg" xml:space="preserve" width="210mm" height="148mm" version="1.1" style="shape-rendering:geometricPrecision; text-rendering:geometricPrecision; image-rendering:optimizeQuality; fill-rule:evenodd; clip-rule:evenodd"
viewBox="0 0 21000 14800"
 xmlns:xlink="http://www.w3.org/1999/xlink"
 xmlns:xodm="http://www.corel.com/coreldraw/odm/2003">
 <defs>
  <style type="text/css">
   <![CDATA[
    .fil1 {fill:#0D003B;fill-rule:nonzero}
    .fil0 {fill:url(#id0)}
   ]]>
  </style>
  <linearGradient id="id0" gradientUnits="userSpaceOnUse" x1="9909.49" y1="8004.76" x2="8762.63" y2="6854.53">
   <stop offset="0" style="stop-opacity:1; stop-color:#00C8FF"/>
   <stop offset="0.490196" style="stop-opacity:1; stop-color:#0B64D1"/>
   <stop offset="1" style="stop-opacity:1; stop-color:#1700A2"/>
  </linearGradient>
 </defs>
 <g id="Camada_x0020_1">
  <metadata id="CorelCorpID_0Corel-Layer"/>
  <g id="_2542710691312">
   <path class="fil0" d="M9892.6 6317.99c-292.15,0 -617.78,234.67 -617.78,524.14l0 0 0 60.67c-60.96,-15.15 -124.61,-23.59 -190.14,-24.35l0 0c-449.85,-5.22 -822.77,355.95 -827.34,801.65l0 0c-4.62,451.29 363.2,818.57 817.62,818.57 451.57,0 817.66,-362.72 817.66,-810.16l0 0c0,-10.79 0.41,-21.53 -0.01,-32.24l0 0 0.01 -3.06 0 -170 0 -251.13 0 -914.09 -0.02 0zm-1151.75 1374.77c0,-187.78 153.63,-339.99 343.14,-339.99l0 0c189.51,0 343.14,152.21 343.14,339.99l0 0c0,187.75 -153.63,339.98 -343.14,339.98l0 0c-189.51,0 -343.14,-152.23 -343.14,-339.98l0 0z"/>
   <g>
    <path class="fil1" d="M12600.47 7463.99c0,-36.37 -19.45,-66.48 -52.06,-66.48 -32.62,0 -52.06,30.11 -52.06,66.48 0,36.39 19.44,66.51 52.06,66.51 32.61,0 52.06,-30.12 52.06,-66.51zm-70.26 158.08c-80.91,0 -130.46,-65.87 -130.46,-158.08 0,-92.2 50.17,-158.07 127.96,-158.07 30.72,0 57.7,10.67 74.65,31.37 6.89,-18.82 23.82,-30.11 43.27,-30.11 26.34,0 47.04,20.08 47.04,52.06l0 141.14c0,23.21 6.28,33.88 13.81,42.02 10.04,10.66 21.97,18.84 21.97,39.52 0,24.47 -15.69,38.89 -46.43,38.89 -31.38,0 -52.71,-15.05 -64.61,-38.25 -16.94,24.47 -48.31,39.51 -87.2,39.51z"/>
    <path class="fil1" d="M10550.61 7464.15c0,-36.38 -19.46,-66.48 -52.08,-66.48 -32.61,0 -52.06,30.1 -52.06,66.48 0,36.39 19.45,66.5 52.06,66.5 32.62,0 52.08,-30.11 52.08,-66.5zm-70.29 158.09c-80.89,0 -130.45,-65.88 -130.45,-158.09 0,-92.2 50.17,-158.07 127.96,-158.07 30.72,0 57.7,10.67 74.66,31.36 6.89,-18.81 23.82,-30.1 43.28,-30.1 26.34,0 47.02,20.07 47.02,52.06l0 141.14c0,23.21 6.28,33.88 13.81,42.03 10.05,10.65 21.97,18.83 21.97,39.51 0,24.47 -15.69,38.89 -46.43,38.89 -31.37,0 -52.7,-15.05 -64.6,-38.25 -16.93,24.47 -48.31,39.52 -87.22,39.52z"/>
    <path class="fil1" d="M10161.54 7529.99c-28.85,0 -52.24,-29.85 -52.24,-66.7 0,-36.83 23.39,-66.69 52.24,-66.69 28.84,0 52.22,29.86 52.22,66.69 0,36.85 -23.38,66.7 -52.22,66.7zm158.92 -335.56l0 0c-56.78,0 -120.08,46.03 -120.08,102.82l0 11.91c-11.84,-2.98 -24.23,-4.63 -36.96,-4.79 -87.44,-1.02 -159.93,69.84 -160.81,157.27 -0.9,88.54 70.6,160.59 158.93,160.59 87.77,0 158.92,-71.15 158.92,-158.94 0,-2.1 0.09,-4.22 0,-6.32l0 -0.6 0 -33.35 0 -49.28 0 -179.31z"/>
    <path class="fil1" d="M10834.36 7529.99c-28.85,0 -52.23,-29.85 -52.23,-66.7 0,-36.83 23.38,-66.69 52.23,-66.69 28.83,0 52.22,29.86 52.22,66.69 0,36.85 -23.39,66.7 -52.22,66.7zm158.92 -335.56l0 0c-56.79,0 -120.08,46.03 -120.08,102.82l0 11.91c-11.84,-2.98 -24.21,-4.63 -36.96,-4.79 -87.43,-1.02 -159.93,69.84 -160.81,157.27 -0.9,88.54 70.6,160.59 158.93,160.59 87.77,0 158.92,-71.15 158.92,-158.94 0,-2.1 0.09,-4.22 0,-6.32l0 -0.6 0 -33.35 0 -49.28 0 -179.31z"/>
    <path class="fil1" d="M11221.08 7463.69c0,-36.49 -19.5,-66.68 -52.21,-66.68 -32.72,0 -52.23,30.19 -52.23,66.68 0,36.5 19.51,66.69 52.23,66.69 32.71,0 52.21,-30.19 52.21,-66.69zm-200.07 0c0,-86.2 54.74,-158.55 147.86,-158.55 93.11,0 147.85,72.35 147.85,158.55 0,86.2 -54.74,158.55 -147.85,158.55 -93.12,0 -147.86,-72.35 -147.86,-158.55z"/>
    <path class="fil1" d="M11336.79 7554.92c0,-21.4 13.21,-36.5 39.64,-36.5 32.72,0 40.89,25.79 84.92,25.79 18.25,0 32.09,-4.4 32.09,-15.09 0,-16.98 -36.48,-19.5 -73.61,-31.45 -38.38,-11.96 -76.75,-34.6 -76.75,-93.12 0,-58.52 39.64,-99.4 114.5,-99.4 54.75,0 108.85,21.38 108.85,64.16 0,22.65 -15.74,35.24 -39.01,35.24 -30.83,0 -34.61,-21.4 -68.58,-21.4 -16.36,0 -27.05,5.67 -27.05,14.47 0,15.1 25.79,19.51 56.62,28.32 42.78,11.94 93.73,32.08 93.73,98.15 0,65.43 -50.33,98.14 -123.3,98.14 -61.03,0 -122.05,-22.65 -122.05,-67.31z"/>
    <path class="fil1" d="M11755.39 7570.01c0,32.09 -20.76,52.23 -47.18,52.23 -26.43,0 -47.19,-20.14 -47.19,-52.23l0 -151 -13.86 0c-31.45,0 -50.94,-20.13 -50.94,-45.93 0,-25.8 19.49,-45.92 50.94,-45.92l13.86 0 0 -12.59c0,-74.86 40.89,-120.16 111.98,-120.16 46.55,0 64.81,18.88 64.81,46.56 0,27.67 -18.87,45.29 -50.97,45.29 -18.23,0 -31.45,10.69 -31.45,36.5l0 4.4 32.08 0c30.21,0 50.34,20.76 50.34,45.92 0,24.55 -20.13,45.93 -50.34,45.93l-32.08 0 0 151z"/>
    <path class="fil1" d="M12037.15 7427.83c-4.41,-25.17 -18.26,-40.9 -39.64,-40.9 -21.38,0 -35.23,15.73 -39.62,40.9l79.26 0zm-32.72 107.59c36.49,0 40.26,-22.67 69.2,-22.67 27.07,0 42.17,19.52 42.17,40.91 0,40.89 -53.48,68.58 -112,68.58 -94.38,0 -145.97,-72.98 -145.97,-159.17 0,-86.19 50.97,-157.92 139.68,-157.92 96.26,0 139.04,84.3 139.04,140.3 0,36.49 -17.61,49.07 -47.19,49.07l-133.99 0c4.39,26.43 20.12,40.9 49.06,40.9z"/>
    <path class="fil1" d="M12329.58 7306.4c29.58,0 49.71,19.5 49.71,48.45 0,29.56 -22.02,47.81 -50.97,47.81 -33.97,0 -58.5,20.76 -58.5,66.68l0 100.67c0,32.09 -20.76,52.23 -47.19,52.23 -26.43,0 -47.18,-20.14 -47.18,-52.23l0 -210.14c0,-32.08 20.75,-52.21 47.18,-52.21 25.79,0 43.4,18.88 46.55,41.52 13.21,-26.43 33.98,-42.78 60.4,-42.78z"/>
   </g>
  </g>
 </g>
</svg>
