<?xml version="1.0" encoding="UTF-8"?>
<!DOCTYPE svg PUBLIC "-//W3C//DTD SVG 1.1//EN" "http://www.w3.org/Graphics/SVG/1.1/DTD/svg11.dtd">
<!-- Creator: CorelDRAW 2020 (64 Bit) -->
<svg xmlns="http://www.w3.org/2000/svg" xml:space="preserve" width="40.1mm" height="13.079mm" version="1.1" style="shape-rendering:geometricPrecision; text-rendering:geometricPrecision; image-rendering:optimizeQuality; fill-rule:evenodd; clip-rule:evenodd"
viewBox="0 0 4010 1307.9"
 xmlns:xlink="http://www.w3.org/1999/xlink"
 xmlns:xodm="http://www.corel.com/coreldraw/odm/2003">
 <defs>
  <style type="text/css">
   <![CDATA[
    .fil2 {fill:#0D003B;fill-rule:nonzero}
    .fil1 {fill:#4E4E4E;fill-rule:nonzero}
    .fil0 {fill:url(#id0)}
   ]]>
  </style>
  <linearGradient id="id0" gradientUnits="userSpaceOnUse" x1="892.33" y1="974.13" x2="247.44" y2="329.23">
   <stop offset="0" style="stop-opacity:1; stop-color:#00C7FE"/>
   <stop offset="0.878431" style="stop-opacity:1; stop-color:#1607A5"/>
   <stop offset="1" style="stop-opacity:1; stop-color:#1607A5"/>
  </linearGradient>
 </defs>
 <g id="Camada_x0020_1">
  <metadata id="CorelCorpID_0Corel-Layer"/>
  <g id="_2542691136816">
   <path class="fil0" d="M25.12 737.93l0 140.29c33.94,202.84 212.19,357.58 427.01,357.58l0 0c239.02,0 432.81,-191.59 432.81,-427.87l0 0 0 -17.06 0 -706.55 0 -0.19c-154.69,0 -327.05,123.93 -327.05,276.83l0 0 0 31.82c-32.92,-8.14 -66.68,-12.41 -100.59,-12.73l0 0c-215.58,-2.53 -397.81,153.58 -432.18,357.88zm425.36 267.54c-102.24,-0.91 -184.47,-84.61 -183.85,-187.16l0 0c0.62,-102.54 83.84,-185.24 186.08,-184.92l0 0c102.23,0.32 184.93,83.56 184.9,186.1l0 0c-0.22,49.55 -20.06,96.98 -55.16,131.86l0 0c-34.9,34.68 -82.02,54.12 -131.12,54.12l0 0c-0.28,0 -0.57,0 -0.85,0l0 0z"/>
   <path class="fil1" d="M1241.52 650.6l6.24 8.5c0.47,0.66 0.98,1.12 1.86,1.12 1.04,0 1.71,-0.66 1.71,-1.62 0,-0.66 -0.26,-1.22 -0.57,-1.62l-6.76 -9.1 6.23 -8.71c0.33,-0.4 0.57,-0.96 0.57,-1.62 0,-0.96 -0.67,-1.62 -1.69,-1.62 -0.88,0 -1.39,0.46 -1.86,1.12l-5.53 7.78 -5.72 -7.78c-0.47,-0.66 -0.98,-1.12 -1.86,-1.12 -1.03,0 -1.71,0.66 -1.71,1.62 0,0.66 0.27,1.22 0.57,1.62l6.25 8.4 -6.76 9.41c-0.31,0.4 -0.57,0.96 -0.57,1.62 0,0.96 0.67,1.62 1.71,1.62 0.87,0 1.39,-0.46 1.86,-1.12l6.03 -8.5z"/>
   <path class="fil2" d="M3779.24 886.9c-84.6,0 -137.48,-70.24 -137.48,-168.61 0,-98.38 52.88,-168.48 134.8,-168.48 29.87,-1.51 58.81,10.78 78.68,33.41 6.75,-19.53 25.11,-32.48 45.55,-32.12 14.03,0.14 27.37,6.22 36.78,16.77 9.4,10.55 14.01,24.61 12.71,38.77l0 150.48c-1.63,16.28 3.48,32.51 14.1,44.83 6.02,6.42 12.68,12.01 17.3,19.85l0 45.9c-7.4,11.91 -21.82,18.49 -43.11,18.49 -28.68,1.38 -55.41,-14.68 -67.96,-40.84 -21.92,28.14 -56.04,43.66 -91.37,41.55zm73.89 -168.61c0,-38.84 -20.45,-71.39 -54.71,-71.39 -34.27,0 -54.85,32.13 -54.85,71.39 0,39.26 20.44,71.38 54.85,71.38 34.4,0 54.71,-32.55 54.71,-71.38z"/>
   <path class="fil2" d="M1620.62 887.05c-84.6,0 -137.48,-70.25 -137.48,-168.62 0,-98.37 52.88,-168.48 134.8,-168.48 29.87,-1.5 58.81,10.78 78.68,33.41 6.79,-19.5 25.13,-32.44 45.55,-32.12 28.2,0 49.49,21.42 49.49,55.54l0 150.48c-1.63,16.28 3.47,32.51 14.1,44.84 10.57,11.27 23.12,19.98 23.12,42.12 0,26.12 -16.5,41.4 -48.78,41.4 -28.68,1.39 -55.44,-14.6 -68.11,-40.69 -21.82,28.33 -55.94,44.06 -91.37,42.12zm74.03 -168.62c0,-38.69 -20.59,-71.39 -54.85,-71.39 -34.27,0 -54.85,32.13 -54.85,71.39 0,39.26 20.44,71.39 54.85,71.39 34.4,0 54.85,-32.56 54.85,-71.39z"/>
   <path class="fil2" d="M1452.26 430.88l0 0c-59.78,0 -126.9,49.12 -126.9,109.65l0 12.71c-12.72,-3.32 -25.79,-5.04 -38.92,-5.14 -67.87,-0.81 -129.5,39.96 -156.03,103.22 -26.53,63.26 -12.7,136.48 35.01,185.36 47.71,48.89 119.85,63.76 182.64,37.65 62.78,-26.11 103.78,-88.03 103.78,-156.76l0 -286.69 0.42 0zm-167.37 357.79c-30.31,0 -54.99,-31.83 -54.99,-71.38 0,-39.55 24.68,-71.39 54.99,-71.39 30.32,0 54.99,31.84 54.99,71.39 0,39.55 -24.67,71.38 -54.99,71.38z"/>
   <path class="fil2" d="M2160.8 430.88l0 0c-59.78,0 -126.9,49.12 -126.9,109.65l0 12.71c-12.72,-3.31 -25.78,-5.03 -38.91,-5.14 -67.87,-0.81 -129.51,39.96 -156.03,103.22 -26.53,63.26 -12.71,136.48 35,185.36 47.71,48.89 119.85,63.76 182.64,37.65 62.78,-26.11 103.78,-88.03 103.78,-156.76l0 -286.69 0.42 0zm-167.37 357.79c-30.45,0 -54.99,-31.83 -54.99,-71.38 0,-39.55 24.54,-71.39 54.99,-71.39 30.46,0 54.99,31.84 54.99,71.39 0,39.55 -24.67,71.38 -54.99,71.38z"/>
   <path class="fil2" d="M2189.99 718c0,-91.95 57.53,-169.04 155.11,-169.04 97.57,0 155.1,77.09 155.1,169.04 0,91.95 -57.67,169.05 -155.1,169.05 -97.44,0 -155.11,-76.82 -155.11,-169.05zm210.66 0c0,-38.98 -20.58,-71.39 -54.99,-71.39 -34.4,0 -54.99,32.13 -54.99,71.39 0,39.26 20.59,71.39 54.99,71.39 34.41,0 54.99,-32.55 54.99,-71.39z"/>
   <path class="fil2" d="M2522.48 815.23c0,-22.84 14.1,-38.83 42.3,-38.83 34.4,0 42.3,27.41 89.4,27.41 19.31,0 33.84,-4.71 33.84,-16.14 0,-17.98 -38.5,-20.7 -77.56,-33.4 -39.05,-12.71 -80.79,-36.98 -80.79,-99.95 0,-62.96 42.3,-105.93 120.56,-105.93 57.67,0 114.63,22.69 114.63,68.38 0,24.13 -16.64,37.55 -41.03,37.55 -32.57,0 -36.52,-22.84 -72.33,-22.84 -17.21,0 -28.2,6.14 -28.2,15.42 0,16.13 27.21,20.84 59.64,30.27 45.12,12.7 98.7,34.12 98.7,104.65 0,70.53 -52.87,104.65 -129.86,104.65 -65,0.58 -129.3,-23.55 -129.3,-71.24z"/>
   <path class="fil2" d="M2963.25 831.36c2.95,19.66 -5.76,39.24 -22.25,50.03 -16.49,10.79 -37.7,10.79 -54.19,0 -16.49,-10.79 -25.2,-30.37 -22.26,-50.03l0 -161.04 -14.1 0c-33.13,0 -53.72,-21.42 -53.72,-48.98 0,-27.55 20.59,-48.97 53.72,-48.97l14.1 0 0 -13.42c0,-79.81 43.15,-128.5 118.02,-128.5 48.93,0 68.25,20.13 68.25,49.55 0,29.41 -19.88,48.4 -53.72,48.4 -19.18,0 -33.14,11.42 -33.14,38.83l0 4.71 33.84 0c18.16,-1.4 35.57,7.61 45.07,23.34 9.51,15.74 9.51,35.53 0,51.26 -9.5,15.74 -26.91,24.75 -45.07,23.35l-33.84 0 -0.71 161.47z"/>
   <path class="fil2" d="M3225.52 794.39c38.49,0 42.3,-24.13 72.9,-24.13 11.73,-0.6 23.18,3.77 31.6,12.05 8.42,8.29 13.07,19.75 12.82,31.64 0,43.54 -56.41,73.1 -118.02,73.1 -98.71,0 -153.7,-77.82 -153.7,-169.76 0,-91.95 53.72,-168.33 147.07,-168.33 101.38,0 146.5,89.8 146.5,149.62 0,38.84 -18.61,52.26 -49.77,52.26l-141.01 0c0.92,12.79 6.94,24.66 16.67,32.87 9.74,8.21 22.35,12.07 34.94,10.68zm34.41 -114.22c-4.52,-26.85 -19.18,-43.55 -42.31,-43.55 -23.12,0 -37.08,16.7 -42.3,43.55l84.61 0z"/>
   <path class="fil2" d="M3567.88 550.24c18.74,-0.73 36.35,9.06 45.8,25.46 9.46,16.4 9.21,36.75 -0.65,52.9 -9.85,16.17 -27.7,25.5 -46.43,24.29 -35.81,0 -61.61,22.14 -61.61,71.39l0 107.37c1.74,19.09 -7.34,37.53 -23.43,47.62 -16.1,10.09 -36.45,10.09 -52.55,0 -16.09,-10.09 -25.17,-28.53 -23.43,-47.62l0 -224.16c-1.3,-14.21 3.34,-28.33 12.8,-38.91 9.46,-10.59 22.88,-16.67 36.97,-16.77 25.17,-0.14 46.32,19.07 48.93,44.4 13.97,-28.69 35.82,-45.97 63.6,-45.97z"/>
   <path class="fil2" d="M3106.49 1155.44l0 -43.46c-0.48,-16.44 -3.83,-27.01 -23.48,-27.01 -21.32,0 -21.08,12.21 -21.08,31l0 35.24c0,19.03 -0.24,31.25 21.08,31.25 19.65,0 23,-10.34 23.48,-27.02zm0 30.54c-5.75,6.58 -14.14,10.1 -26.36,10.1 -31.86,0 -33.3,-19.5 -33.3,-43.93l0 -37.11c0,-25.61 2.4,-43.93 34.03,-43.93 11.98,0 20.12,3.76 25.63,10.1l0 -65.07 15.09 0 0 178.53 -15.09 0 0 -8.69z"/>
   <path class="fil2" d="M3202.81 1151.21l0 -15.74 -17.01 0c-17.49,0 -24.92,5.17 -24.92,22.09 0,17.38 1.68,24.66 18.45,24.66 21.8,0 23.48,-11.98 23.48,-31.01zm-56.79 6.35c0,-28.2 16.06,-35.71 39.78,-35.71l17.01 0 0 -13.63c0,-15.03 -0.72,-23.49 -18.69,-23.49 -14.38,0 -16.53,3.06 -19.89,17.15l-14.61 -2.35c4.07,-20.2 12.46,-28.42 35.22,-28.42 31.62,0 32.58,15.5 32.58,37.11l0 86.45 -14.61 0 0 -9.39c-5.51,6.81 -14.14,10.8 -27.08,10.8 -22.76,0 -29.71,-13.39 -29.71,-38.52z"/>
   <path class="fil2" d="M3235.4 1072.52l14.85 0 0 -37.12 15.09 0 0 37.12 27.32 0 0 13.86 -27.32 0 0 74.46c0,14.1 3.6,19.97 14.86,19.97l12.46 0 0 13.86 -12.46 0c-22.28,0 -29.95,-10.57 -29.95,-33.83l0 -74.46 -14.85 0 0 -13.86z"/>
   <path class="fil2" d="M3368.37 1151.21l0 -15.74 -17.01 0c-17.49,0 -24.92,5.17 -24.92,22.09 0,17.38 1.68,24.66 18.45,24.66 21.8,0 23.48,-11.98 23.48,-31.01zm-56.78 6.35c0,-28.2 16.05,-35.71 39.77,-35.71l17.01 0 0 -13.63c0,-15.03 -0.72,-23.49 -18.69,-23.49 -14.37,0 -16.53,3.06 -19.88,17.15l-14.62 -2.35c4.07,-20.2 12.46,-28.42 35.22,-28.42 31.63,0 32.59,15.5 32.59,37.11l0 86.45 -14.62 0 0 -9.39c-5.51,6.81 -14.13,10.8 -27.07,10.8 -22.76,0 -29.71,-13.39 -29.71,-38.52z"/>
   <path class="fil2" d="M3401.54 1160.42l24.98 -3.69c1.42,11.32 2.59,18.02 15.56,18.02 12.49,0 15.08,-4.62 15.08,-12.48 0,-23.33 -53.73,-13.17 -53.73,-56.14 0,-20.56 10.13,-34.66 39.59,-34.66 29.93,0 37,14.1 39.12,35.12l-24.98 3.7c-1.42,-11.78 -3.3,-17.1 -14.14,-17.1 -11.08,0 -13.91,5.08 -13.91,12.25 0,22.64 53.5,12.71 53.5,55.91 0,19.64 -7.78,35.58 -40.53,35.58 -32.53,0 -38.42,-15.02 -40.54,-36.51z"/>
   <path class="fil2" d="M3560.14 1151.41l0 -34.65c0,-13.87 0,-22.41 -16.26,-22.41 -14.84,0 -17.2,6.93 -17.44,18.48l0 38.58c0,13.87 0.95,22.41 17.44,22.41 16.26,0 16.26,-8.54 16.26,-22.41zm-60.8 -78.55l27.1 0 0 9.71c5.19,-7.17 13.2,-11.1 26.63,-11.1 31.35,0 33.94,18.49 33.94,44.37l0 36.5c0,26.34 -3.54,44.59 -35.12,44.59 -12.49,0 -20.5,-3.7 -25.45,-10.17l0 49.91 -27.1 0 0 -163.81z"/>
   <path class="fil2" d="M3605.63 1072.86l27.1 0 0 11.32c4.95,-7.85 12.72,-12.71 26.86,-12.71l2.12 0 0 23.57 -7.07 0c-14.61,0 -21.44,6.01 -21.91,18.71l0 81.79 -27.1 0 0 -122.68z"/>
   <path class="fil2" d="M3676.32 1072.86l27.1 0 0 122.68 -27.1 0 0 -122.68zm-0.47 -42.74l28.05 0 0 29.34 -28.05 0 0 -29.34z"/>
   <path class="fil2" d="M3725.82 1072.86l27.1 0 0 11.32c4.95,-8.55 12.25,-12.71 26.86,-12.71 30.17,0 32.29,16.18 32.29,36.51l0 87.56 -26.87 0 0 -84.1c0,-9.7 -0.94,-16.63 -15.08,-16.63 -12.73,0 -17.2,7.16 -17.2,18.71l0 82.02 -27.1 0 0 -122.68z"/>
   <path class="fil2" d="M3826.68 1072.86l12.73 0 0 -35.35 26.86 0 0 35.35 22.62 0 0 23.1 -22.62 0 0 61.46c0,10.4 2.36,15.02 12.02,15.02l10.6 0 0 23.1 -14.37 0c-28.75,0 -35.11,-11.78 -35.11,-36.5l0 -63.08 -12.73 0 0 -23.1z"/>
   <path class="fil2" d="M3902.33 1160.42l24.98 -3.69c1.41,11.32 2.59,18.02 15.55,18.02 12.49,0 15.08,-4.62 15.08,-12.48 0,-23.33 -53.73,-13.17 -53.73,-56.14 0,-20.56 10.14,-34.66 39.59,-34.66 25.71,0 34.55,10.4 37.88,26.66l0 8.65 -23.74 3.51c-1.41,-11.78 -3.3,-17.1 -14.14,-17.1 -11.07,0 -13.9,5.08 -13.9,12.25 0,20.21 42.64,14.46 51.78,43.75l0 25.96c-3.71,12.79 -14.22,21.78 -38.82,21.78 -32.52,0 -38.41,-15.02 -40.53,-36.51z"/>
   <path class="fil2" d="M2856.53 1151.93l0 -34.67c0,-18.73 0.23,-30.75 -20.75,-30.75 -19.57,0 -22.87,10.4 -23.11,26.82l0 38.6c0,18.49 2.12,30.51 23.11,30.51 20.98,0 20.75,-12.02 20.75,-30.51zm-58.71 -132.92l14.85 0 0 64.03c5.42,-6.24 13.68,-9.94 25.94,-9.94 31.36,0 32.77,19.19 32.77,43.23l0 36.52c0,25.2 -2.36,43.23 -33.48,43.23 -11.79,0 -19.81,-3.46 -25.23,-9.94l0 8.56 -14.85 0 0 -175.69z"/>
   <polygon class="fil2" points="2915.46,1191.92 2884.81,1074.49 2899.43,1074.49 2922.54,1165.34 2922.77,1165.34 2946.59,1074.49 2960.97,1074.49 2918.53,1235.84 2903.91,1235.84 "/>
  </g>
 </g>
</svg>
