<?xml version="1.0" encoding="UTF-8"?>
<!DOCTYPE svg PUBLIC "-//W3C//DTD SVG 1.1//EN" "http://www.w3.org/Graphics/SVG/1.1/DTD/svg11.dtd">
<!-- Creator: CorelDRAW 2020 (64 Bit) -->
<svg xmlns="http://www.w3.org/2000/svg" xml:space="preserve" width="553.112mm" height="160.744mm" version="1.1" style="shape-rendering:geometricPrecision; text-rendering:geometricPrecision; image-rendering:optimizeQuality; fill-rule:evenodd; clip-rule:evenodd"
viewBox="0 0 55311.2 16074.4"
 xmlns:xlink="http://www.w3.org/1999/xlink"
 xmlns:xodm="http://www.corel.com/coreldraw/odm/2003">
 <defs>
  <style type="text/css">
   <![CDATA[
    .fil0 {fill:#FEFEFE}
    .fil3 {fill:#0D003B;fill-rule:nonzero}
    .fil2 {fill:#4E4E4E;fill-rule:nonzero}
    .fil1 {fill:url(#id0)}
   ]]>
  </style>
  <linearGradient id="id0" gradientUnits="userSpaceOnUse" x1="12154.56" y1="12418.78" x2="3160.26" y2="3424.49">
   <stop offset="0" style="stop-opacity:1; stop-color:#00C7FE"/>
   <stop offset="0.878431" style="stop-opacity:1; stop-color:#1607A5"/>
   <stop offset="1" style="stop-opacity:1; stop-color:#1607A5"/>
  </linearGradient>
 </defs>
 <g id="Camada_x0020_1">
  <metadata id="CorelCorpID_0Corel-Layer"/>
  <rect class="fil0" x="-5" y="6.15" width="55311.21" height="16074.36"/>
  <g id="_2542655410320">
   <path class="fil1" d="M59.7 9124.6l0 1956.68c473.36,2829.03 2959.31,4987.18 5955.45,4987.18l0 0c3333.57,0 6036.37,-2672.18 6036.37,-5967.55l0 0 0 -237.91 0 -9854.17 0 -2.68c-2157.48,0 -4561.3,1728.47 -4561.3,3860.9l0 0 0 443.87c-459.17,-113.53 -929.99,-173.11 -1403.03,-177.55l0 0c-3006.69,-35.35 -5548.17,2141.92 -6027.49,4991.23zm5932.42 3731.4c-1425.9,-12.7 -2572.74,-1180.11 -2564.2,-2610.28l0 0c8.64,-1430.09 1169.35,-2583.59 2595.24,-2579.11l0 0c1425.89,4.55 2579.33,1165.43 2578.9,2595.55l0 0c-3.14,691.1 -279.88,1352.62 -769.36,1839.03l0 0c-486.69,483.66 -1143.95,754.84 -1828.73,754.84l0 0c-3.95,0 -7.9,0 -11.85,-0.03l0 0z"/>
   <path class="fil2" d="M17024.66 7906.65l87.1 118.6c6.53,9.2 13.67,15.6 25.91,15.6 14.49,0 23.87,-9.2 23.87,-22.6 0,-9.2 -3.67,-17 -7.96,-22.6l-94.24 -127 86.9 -121.4c4.49,-5.6 7.96,-13.4 7.96,-22.6 0,-13.4 -9.39,-22.6 -23.67,-22.6 -12.24,0 -19.38,6.4 -25.91,15.6l-77.11 108.6 -79.76 -108.6c-6.53,-9.2 -13.67,-15.6 -25.91,-15.6 -14.48,0 -23.87,9.2 -23.87,22.6 0,9.2 3.67,17 7.96,22.6l87.11 117.2 -94.25 131.2c-4.29,5.6 -7.96,13.4 -7.96,22.6 0,13.4 9.39,22.6 23.87,22.6 12.04,0 19.38,-6.4 25.91,-15.6l84.05 -118.6z"/>
   <path class="fil3" d="M52418.12 11202.36c-1179.94,0 -1917.42,-979.7 -1917.42,-2351.69 0,-1371.98 737.48,-2349.7 1880.02,-2349.7 416.63,-21.03 820.18,150.31 1097.35,465.95 94.16,-272.42 350.21,-453.04 635.22,-448.03 195.79,1.94 381.81,86.78 512.97,233.96 131.13,147.18 195.47,343.25 177.31,540.67l0 2098.77c-22.72,227.01 48.5,453.39 196.67,625.26 83.97,89.55 176.82,167.5 241.25,276.81l0 640.19c-103.19,166.09 -304.3,257.86 -601.15,257.86 -400.02,19.26 -772.87,-204.79 -947.92,-569.53 -305.75,392.43 -781.51,608.79 -1274.3,579.48zm1030.46 -2351.69c0,-541.61 -285.15,-995.64 -763.02,-995.64 -477.91,0 -765,448.07 -765,995.64 0,547.58 285.15,995.64 765,995.64 479.88,0 763.02,-454.02 763.02,-995.64z"/>
   <path class="fil3" d="M22312.01 11204.35c-1179.94,0 -1917.42,-979.7 -1917.42,-2351.69 0,-1371.98 737.48,-2349.7 1880.06,-2349.7 416.6,-21.03 820.17,150.32 1097.35,465.95 94.62,-272.03 350.38,-452.44 635.18,-448.03 393.31,0 690.28,298.7 690.28,774.63l0 2098.77c-22.72,227.01 48.47,453.39 196.64,625.26 147.49,157.31 322.54,278.77 322.54,587.45 0,364.38 -230.12,577.43 -680.44,577.43 -400.01,19.4 -773.22,-203.59 -949.85,-567.48 -304.31,395.11 -780.24,614.5 -1274.34,587.41zm1032.44 -2351.69c0,-539.63 -287.13,-995.63 -765,-995.63 -477.87,0 -765,448.02 -765,995.63 0,547.58 285.19,995.65 765,995.65 479.85,0 765,-454.03 765,-995.65z"/>
   <path class="fil3" d="M19963.93 4842.25l0 0c-833.82,0 -1769.92,684.99 -1769.92,1529.29l0 177.23c-177.34,-46.24 -359.62,-70.3 -542.75,-71.68 -946.57,-11.32 -1806.18,557.35 -2176.18,1439.62 -369.99,882.28 -177.13,1903.43 488.28,2585.25 665.38,681.78 1671.54,889.14 2547.2,525 875.63,-364.14 1447.41,-1227.74 1447.48,-2186.27l0 -3998.44 5.89 0zm-2334.33 4990.1c-422.8,0 -766.94,-444.04 -766.94,-995.61 0,-551.59 344.14,-995.63 766.94,-995.63 422.84,0 766.98,444.04 766.98,995.63 0,551.57 -344.14,995.61 -766.98,995.61z"/>
   <path class="fil3" d="M29845.9 4842.25l0 0c-833.83,0 -1769.89,684.99 -1769.89,1529.29l0 177.23c-177.41,-46.1 -359.65,-70.2 -542.78,-71.68 -946.57,-11.32 -1806.15,557.35 -2176.14,1439.62 -369.99,882.28 -177.16,1903.43 488.24,2585.25 665.37,681.78 1671.53,889.14 2547.2,525 875.66,-364.14 1447.41,-1227.74 1447.48,-2186.27l0 -3998.44 5.89 0zm-2334.3 4990.1c-424.77,0 -766.97,-444.04 -766.97,-995.61 0,-551.59 342.2,-995.63 766.97,-995.63 424.78,0 766.94,444.04 766.94,995.63 0,551.57 -344.13,995.61 -766.94,995.61z"/>
   <path class="fil3" d="M30252.98 8846.68c0,-1282.37 802.36,-2357.64 2163.23,-2357.64 1360.84,0 2163.2,1075.27 2163.2,2357.64 0,1282.38 -804.3,2357.68 -2163.2,2357.68 -1358.9,0 -2163.23,-1071.31 -2163.23,-2357.68zm2938.04 0c0,-543.59 -287.09,-995.64 -766.94,-995.64 -479.85,0 -766.98,448.07 -766.98,995.64 0,547.58 287.13,995.64 766.98,995.64 479.85,0 766.94,-454.02 766.94,-995.64z"/>
   <path class="fil3" d="M34890.14 10202.73c0,-318.59 196.68,-541.62 589.99,-541.62 479.81,0 589.95,382.34 1246.79,382.34 269.41,0 471.98,-65.72 471.98,-225.03 0,-250.9 -536.9,-288.72 -1081.62,-465.95 -544.72,-177.24 -1126.84,-515.73 -1126.84,-1393.89 0,-878.13 589.95,-1477.5 1681.41,-1477.5 804.33,0 1598.82,316.58 1598.82,953.8 0,336.52 -232.06,523.7 -572.28,523.7 -454.27,0 -509.34,-318.59 -1008.83,-318.59 -239.93,0 -393.32,85.62 -393.32,215.05 0,225 379.52,290.72 831.85,422.13 629.29,177.23 1376.58,475.93 1376.58,1459.61 0,983.69 -737.45,1459.59 -1811.2,1459.59 -906.57,7.97 -1803.33,-328.55 -1803.33,-993.64z"/>
   <path class="fil3" d="M41037.62 10427.75c41.06,274.14 -80.44,547.19 -310.41,697.69 -230.01,150.53 -525.78,150.53 -755.76,0 -229.97,-150.5 -351.47,-423.55 -310.44,-697.69l0 -2246.13 -196.64 0c-462.14,0 -749.27,-298.69 -749.27,-683.01 0,-384.31 287.13,-683.01 749.27,-683.01l196.64 0 0 -187.19c0,-1113.12 601.77,-1792.14 1646.02,-1792.14 682.42,0 951.82,280.77 951.82,690.98 0,410.18 -277.27,675.04 -749.25,675.04 -267.48,0 -462.14,159.28 -462.14,541.62l0 65.69 471.95 0c253.29,-19.58 496.06,106.15 628.64,325.54 132.53,219.43 132.53,495.55 0,714.94 -132.58,219.43 -375.35,345.16 -628.64,325.55l-471.95 0 -9.84 2252.12z"/>
   <path class="fil3" d="M44695.42 9912.01c536.86,0 589.98,-336.51 1016.7,-336.51 163.59,-8.33 323.25,52.56 440.73,168.13 117.47,115.57 182.24,275.38 178.75,441.19 0,607.34 -786.62,1019.52 -1646.02,1019.52 -1376.58,0 -2143.55,-1085.25 -2143.55,-2367.63 0,-1282.34 749.26,-2347.69 2051.12,-2347.69 1413.97,0 2043.25,1252.5 2043.25,2086.85 0,541.62 -259.57,728.8 -694.19,728.8l-1966.56 0c12.84,178.44 96.76,343.92 232.51,458.47 135.72,114.51 311.61,168.28 487.26,148.87zm479.85 -1592.99c-62.94,-374.37 -267.44,-607.34 -589.99,-607.34 -322.51,0 -517.21,232.97 -589.95,607.34l1179.94 0z"/>
   <path class="fil3" d="M49470.23 6506.95c261.41,-10.23 507.09,126.29 638.85,355.07 131.87,228.78 128.37,512.52 -9.07,737.87 -137.44,225.39 -386.4,355.64 -647.52,338.77 -499.46,0 -859.37,308.65 -859.37,995.64l0 1497.43c24.31,266.24 -102.27,523.45 -326.78,664.18 -224.54,140.72 -508.31,140.72 -732.82,0 -224.51,-140.73 -351.09,-397.94 -326.81,-664.18l0 -3126.27c-18.17,-198.26 46.6,-395.18 178.54,-542.78 131.97,-147.64 319.01,-232.45 515.65,-233.82 350.91,-1.91 645.97,265.92 682.41,619.26 194.74,-400.22 499.47,-641.17 886.92,-641.17z"/>
   <path class="fil3" d="M43035.32 14947.63l0 -606.1c-6.7,-229.34 -53.48,-376.77 -327.48,-376.77 -297.39,0 -294.04,170.36 -294.04,432.44l0 491.45c0,265.39 -3.35,435.75 294.04,435.75 274,0 320.78,-144.14 327.48,-376.77zm0 425.91c-80.22,91.73 -197.16,140.87 -367.59,140.87 -444.43,0 -464.47,-271.92 -464.47,-612.64l0 -517.66c0,-357.12 33.41,-612.67 474.52,-612.67 167.08,0 280.67,52.42 357.54,140.9l0 -907.56 210.51 0 0 2489.98 -210.51 0 0 -121.22z"/>
   <path class="fil3" d="M44378.64 14888.65l0 -219.5 -237.24 0c-243.95,0 -347.52,72.07 -347.52,307.97 0,242.43 23.39,344 257.28,344 304.09,0 327.48,-167.08 327.48,-432.47zm-791.95 88.47c0,-393.17 223.87,-498.01 554.71,-498.01l237.24 0 0 -190.01c0,-209.69 -10.02,-327.62 -260.63,-327.62 -200.52,0 -230.58,42.58 -277.35,239.14l-203.84 -32.73c56.8,-281.77 173.74,-396.46 491.21,-396.46 441.08,0 454.45,216.26 454.45,517.67l0 1205.65 -203.84 0 0 -131.02c-76.87,95.01 -197.17,150.67 -377.61,150.67 -317.43,0 -414.34,-186.72 -414.34,-537.28z"/>
   <path class="fil3" d="M44833.14 13791.1l207.19 0 0 -517.67 210.5 0 0 517.67 380.96 0 0 193.29 -380.96 0 0 1038.57c0,196.61 50.13,278.49 207.18,278.49l173.78 0 0 193.32 -173.78 0c-310.76,0 -417.68,-147.43 -417.68,-471.81l0 -1038.57 -207.19 0 0 -193.29z"/>
   <path class="fil3" d="M46687.75 14888.65l0 -219.5 -237.24 0c-243.95,0 -347.53,72.07 -347.53,307.97 0,242.43 23.39,344 257.32,344 304.06,0 327.45,-167.08 327.45,-432.47zm-791.95 88.47c0,-393.17 223.87,-498.01 554.71,-498.01l237.24 0 0 -190.01c0,-209.69 -10.02,-327.62 -260.63,-327.62 -200.49,0 -230.58,42.58 -277.36,239.14l-203.83 -32.73c56.79,-281.77 173.74,-396.46 491.2,-396.46 441.12,0 454.45,216.26 454.45,517.67l0 1205.65 -203.83 0 0 -131.02c-76.84,95.01 -197.13,150.67 -377.58,150.67 -317.46,0 -414.37,-186.72 -414.37,-537.28z"/>
   <path class="fil3" d="M47150.36 15017.14l348.4 -51.55c19.72,157.87 36.16,251.32 216.93,251.32 174.2,0 210.32,-64.45 210.32,-173.99 0,-325.47 -749.37,-183.69 -749.37,-783.02 0,-286.78 141.36,-483.34 552.2,-483.34 417.41,0 516.01,196.56 545.58,489.79l-348.41 51.54c-19.72,-164.32 -46,-238.44 -197.17,-238.44 -154.48,0 -193.92,70.88 -193.92,170.78 0,315.77 746.06,177.24 746.06,779.78 0,273.9 -108.45,496.25 -565.29,496.25 -453.57,0 -535.73,-209.44 -565.33,-509.12z"/>
   <path class="fil3" d="M49362.37 14891.47l0 -483.34c0,-193.36 0,-312.56 -226.76,-312.56 -207.08,0 -239.96,96.66 -243.24,257.77l0 538.13c0,193.36 13.15,312.56 243.24,312.56 226.76,0 226.76,-119.2 226.76,-312.56zm-848.01 -1095.59l378.01 0 0 135.36c72.28,-99.9 184.04,-154.69 371.4,-154.69 437.13,0 473.29,257.81 473.29,618.7l0 509.1c0,367.34 -49.32,621.91 -489.73,621.91 -174.2,0 -285.93,-51.54 -354.96,-141.78l0 696.03 -378.01 0 0 -2284.63z"/>
   <path class="fil3" d="M49996.72 13795.89l377.97 0 0 157.91c69.04,-109.58 177.52,-177.24 374.68,-177.24l29.6 0 0 328.68 -98.6 0c-203.76,0 -299.08,83.75 -305.68,260.99l0 1140.71 -377.97 0 0 -1711.05z"/>
   <path class="fil3" d="M50982.75 13795.9l377.97 0 0 1711.05 -377.97 0 0 -1711.05zm-6.56 -596.12l391.13 0 0 409.22 -391.13 0 0 -409.22z"/>
   <path class="fil3" d="M51673 13795.89l377.97 0 0 157.91c69.04,-119.24 170.92,-177.24 374.68,-177.24 420.73,0 450.29,225.57 450.29,509.13l0 1221.25 -374.65 0 0 -1172.92c0,-135.33 -13.16,-232.02 -210.36,-232.02 -177.52,0 -239.96,99.9 -239.96,261.02l0 1143.92 -377.97 0 0 -1711.05z"/>
   <path class="fil3" d="M53079.74 13795.89l177.49 0 0 -493 374.68 0 0 493 315.53 0 0 322.23 -315.53 0 0 857.11c0,145.03 32.88,209.48 167.61,209.48l147.92 0 0 322.23 -200.49 0c-400.97,0 -489.72,-164.36 -489.72,-509.13l0 -879.69 -177.49 0 0 -322.23z"/>
   <path class="fil3" d="M54134.77 15017.14l348.4 -51.55c19.72,157.87 36.16,251.32 216.93,251.32 174.2,0 210.32,-64.45 210.32,-173.99 0,-325.47 -749.37,-183.69 -749.37,-783.02 0,-286.78 141.36,-483.34 552.21,-483.34 358.5,0 481.83,145 528.23,371.72l0 120.64 -331.07 48.97c-19.72,-164.32 -46,-238.44 -197.16,-238.44 -154.49,0 -193.93,70.88 -193.93,170.78 0,281.94 594.73,201.76 722.16,610.24l0 361.98c-51.75,178.43 -198.35,303.81 -541.39,303.81 -453.57,0 -535.73,-209.44 -565.33,-509.12z"/>
   <path class="fil3" d="M39549.1 14898.68l0 -483.62c0,-261.13 3.28,-428.77 -289.42,-428.77 -272.88,0 -318.95,145.06 -322.23,373.98l0 538.41c0,257.92 29.6,425.56 322.23,425.56 292.7,0 289.42,-167.64 289.42,-425.56zm-818.8 -1853.85l207.15 0 0 893.09c75.63,-87.06 190.75,-138.67 361.7,-138.67 437.38,0 457.13,267.61 457.13,602.93l0 509.38c0,351.43 -32.88,602.93 -466.97,602.93 -164.39,0 -276.23,-48.37 -351.86,-138.68l0 119.31 -207.15 0 0 -2450.29z"/>
   <polygon class="fil3" points="40371.06,15456.42 39943.6,13818.62 40147.47,13818.62 40469.77,15085.66 40473.05,15085.66 40805.15,13818.62 41005.78,13818.62 40413.89,16069.02 40209.91,16069.02 "/>
  </g>
 </g>
</svg>
